<svg xmlns="http://www.w3.org/2000/svg" id="Layer_1" x="0" y="0" version="1.1" viewBox="0 0 96 96" xml:space="preserve"><style>.st1{fill:#df1f26}</style><path fill="#f8bbba" d="M34.2 16.4L23.7 31.8l-4 11.7-3.9 16L20.1 75l14.1 7 21.3 1.2 12-3.8L77 74l1.7-11-1.3-11.5-5-17L65 21.8l-4.5-6.5-14.2-4.6z"/><path d="M90.5 28c-3-5-7-9.7-10-12.2-6.2-5.6-11.5-5.4-14.2-4.8-.9.2-1.8.5-2.5.9-4.3-3-9.5-4.5-15.8-4.5S36.5 9 32.2 12c-.8-.4-1.6-.7-2.5-.9-2.6-.6-8-.7-14.3 4.8A57.7 57.7 0 0 0 5.5 28c-4.1 7-5 12.6-2.6 17 2.1 3.8 5.3 6 9.7 6.7-.7 3.2-1.1 6.3-1.1 9.9 0 5.7 1.3 10.7 3.9 14.7 2.3 3.5 5.6 6.4 9.7 8.4a53.4 53.4 0 0 0 22.8 4c6.2 0 15.3-.3 22.8-4a23.5 23.5 0 0 0 13.6-23.1 40 40 0 0 0-1.1-10c4.4-.6 7.6-2.8 9.7-6.6 2.5-4.3 1.7-10-2.4-16.9zm-64.6-9.7a60.6 60.6 0 0 0-7.6 16.3l-2.5 6.9-1 2.7c-2.4-.1-4.1-.8-5.4-3.1-.9-1.7 0-5.2 2.5-9.4s6.1-8.4 8.4-10.4c2.3-2 4.2-2.7 5.6-3zM43 59.7c1.2-.5 4-.5 5-.5s3.4 0 5 .5c0 .4-.8 1.7-2 3-1.5 1.4-2.8 1.9-3 1.9s-1.7-.5-3-1.9v-.1c-1.5-1.2-2-2.5-2-2.9zm8.6 11.6a15 15 0 0 0 4.5-3.2c1.2-1.2 4-4.5 4-8.3a7 7 0 0 0-4.4-6.9c-1.8-.8-4-1.1-7.8-1.1s-6 .3-7.8 1.1a7 7 0 0 0-4.5 6.9c0 3.8 2.9 7.1 4 8.3a15 15 0 0 0 4.6 3.2v9.8a41.5 41.5 0 0 1-16-3.3C22 74.7 19 69.3 19 61.4a43 43 0 0 1 3.9-17.2c.7-2 1.7-4.4 2.6-7.2 4.8-14.4 9.8-22.1 22.6-22.1S65.8 22.6 70.6 37c.9 2.8 1.8 5.2 2.6 7.2a43.7 43.7 0 0 1 3.8 17c0 8-3 13.4-9.5 16.5-4 1.9-9.2 3-16 3.3v-9.7zm34.9-30c-1.3 2.2-3 2.8-5.4 3l-1-2.7-.2-.3-2.4-6.6A63.6 63.6 0 0 0 70 18.4a13 13 0 0 1 5.5 3.1A46 46 0 0 1 84 31.9c2.6 4.1 3.5 7.6 2.6 9.3z" class="st1"/><path d="M38.7 37a4.7 4.7 0 0 0-4.6 4.6c0 2.6 2.1 4.6 4.6 4.6s4.6-2.1 4.6-4.6c0-2.5-2-4.6-4.6-4.6zm18.5 0a4.7 4.7 0 0 0-4.6 4.7c0 2.6 2.1 4.7 4.6 4.7 2.5 0 4.6-2.1 4.6-4.7s-2-4.7-4.6-4.7z" class="st1"/></svg>