<svg xmlns="http://www.w3.org/2000/svg" id="Layer_1" x="0" y="0" version="1.1" viewBox="0 0 96 96" xml:space="preserve"><style>.st1{fill-rule:evenodd;clip-rule:evenodd;fill:#e00001}</style><path fill="#f7baba" d="M60.8 58.3a13.4 13.4 0 1 1 26.8 0 13.4 13.4 0 0 1-26.8 0zm-53.4 0a13.4 13.4 0 1 1 26.8 0 13.4 13.4 0 0 1-26.8 0z"/><path d="M74.2 41.8a17 17 0 1 0 0 34 17 17 0 0 0 0-34zm0 6.2c6 0 10.8 4.8 10.8 10.8s-4.8 10.8-10.8 10.8-10.8-4.8-10.8-10.8S68.2 48 74.2 48zm-52.4-6.2a17 17 0 1 0 0 34 17 17 0 0 0 0-34zm0 6.2c6 0 10.8 4.8 10.8 10.8s-4.8 10.8-10.8 10.8c-6 0-10.8-4.8-10.8-10.8S15.8 48 21.8 48z" class="st1"/><path d="M64.6 28.3l6-2a3 3 0 0 0 1.9-4 3 3 0 0 0-4-1.8l-9 3.1c-1 .3-1.6.9-2 1.7-.3.8-.3 1.7 0 2.5l15.4 34a3.1 3.1 0 0 0 4.1 1.4 3.1 3.1 0 0 0 1.5-4.1l-14-30.8zm-36.6-5h-1.2v.2l-.2.1-.1.1h-.1l-.3.3H26l-.1.1-.1.1-.2.2-.1.1-.1.1-.1.1v.4l-.2.1H25v2.3l.1.1.1.1.2.2.1.1.1.1.1.1.2.2.1.1.1.1.1.1.2.2.1.1.1.1.1.1h3.8L43.1 57H20c-1.7 0-3.1 1.4-3.1 3s1.4 3.2 3.1 3.2h26.2a3 3 0 0 0 3-3l.2-3c0-.5 0-1-.3-1.4L37 29.3h1.4a3 3 0 0 0 3-3c0-1.8-1.3-3.2-3-3.2H28v.2z" class="st1"/><path d="M63.4 38.8H37.2a3.1 3.1 0 0 1-3.1-3c0-1.8 1.4-3.2 3.1-3.2h26.2c1.7 0 3.1 1.4 3.1 3.1a3 3 0 0 1-3 3z" class="st1"/><path d="M39.8 37.4l-17 24.7a3 3 0 0 1-4.3.8 3 3 0 0 1-.8-4.3l17-24.7a3 3 0 0 1 4.3-.8c1.4 1 1.7 2.9.8 4.3zm26.2 0L49 62.1a3 3 0 0 1-4.3.8 3 3 0 0 1-.8-4.3l17-24.7a3 3 0 0 1 4.3-.8c1.4 1 1.7 2.9.8 4.3z" class="st1"/></svg>