<svg xmlns="http://www.w3.org/2000/svg" viewBox="0 0 17 21"><g fill="none" fill-rule="evenodd" stroke="#E00000"><g stroke-width=".7"><path fill="#E00000" d="M11.8 19.5l-.2-7.3 3.7-1.3.3 8.6m-8 0L7 12.2l3.6-1.3.2 8.6H7.6zm8.5-9.1a.4.4 0 0 0-.2-.3.4.4 0 0 0-.4-.1l-4 1.4v-1a.4.4 0 0 0-.5-.4l-4 1.4-.3-4.6c0-.2-.2-.4-.4-.4H2.6a.4.4 0 0 0-.4.4l-1 13c0 .2 0 .3.2.4a.4.4 0 0 0 .2 0H16a.4.4 0 0 0 .4-.3l-.3-9.5z"/><path fill="#F7BABA" d="M3 7.2h3l.8 12.3H2.1z"/></g><path stroke-linecap="round" stroke-linejoin="round" stroke-width="1.3" d="M14 15.6h1.3m-1.3 2h1.3m-1.3-4h1.3"/><path fill="#F7BABA" stroke-linecap="round" stroke-linejoin="round" stroke-width="1.3" d="M11 1.6a3.2 3.2 0 0 0-2.3 1 3.5 3.5 0 0 0-3-1.6 3.3 3.3 0 0 0-3.3 3.3H14a3 3 0 0 0-3-2.7z"/></g></svg>