<svg xmlns="http://www.w3.org/2000/svg" xmlns:xlink="http://www.w3.org/1999/xlink" width="16" height="17"><defs><rect id="a" width="1.3" height="1.3" x="0" y="0" rx=".7"/><rect id="c" width="1.3" height="1.3" x="0" y="0" rx=".7"/></defs><g fill="none" fill-rule="evenodd"><path fill="#F7BABA" d="M1.2 1.7h13.2v2.7H1.2z"/><g transform="translate(9 2.3)"><mask id="b" fill="#fff"><use xlink:href="#a"/></mask><use fill="#2B2D2E" xlink:href="#a"/><g fill="#E00000" mask="url(#b)"><path d="M0 0h1.3v1.3H0z"/></g></g><g transform="translate(11.5 2.3)"><mask id="d" fill="#fff"><use xlink:href="#c"/></mask><use fill="#2B2D2E" xlink:href="#c"/><g fill="#E00000" mask="url(#d)"><path d="M0 0h1.3v1.3H0z"/></g></g><path fill="#FFF" d="M1.2 4.4h13.2v10.5H1.2z"/><g transform="translate(4.3 7)"><path fill="#F7BABA" d="M0 3.8C.8 6.3 2 7.4 4 7c1.9-.3 3-1.2 3-2.7-1.5.8-2.8.6-4-.5s-2-1-3 0z"/><circle cx="3.6" cy="3.6" r="3.6" stroke="#E00000" stroke-linecap="round" stroke-linejoin="round" stroke-width="1.4"/><path stroke="#E00000" stroke-linecap="round" stroke-linejoin="round" stroke-width="1.4" d="M0 3.9c4-3.1 2.9 3 7.1 0"/></g><path stroke="#E00000" stroke-linecap="round" stroke-linejoin="round" stroke-width="1.4" d="M1.2 1h13.2v15.2H1.2zm0 3.7h13.2"/></g></svg>