<svg xmlns="http://www.w3.org/2000/svg" viewBox="0 0 96 96"><path fill="#f7baba" d="M43.4 7.2H32.1l5.6 18.4.6 5.4-4.2 9.5-20.8 38.2L31 87l18.7 3.5L67.2 87l13.3-7v-6.5L54.1 26.8l5.4-6L62.3 9l-6-2.5h-7z"/><path fill="#e00000" d="M86 77.2L60.5 31.5a4.3 4.3 0 0 1-.2-3.8c.5-1.2 1.2-2.3 2-3.6 1.1-2 2.3-4.1 3.1-6.7 1-3 1.3-6.2 1-9.7A3 3 0 0 0 65 5.6a15.7 15.7 0 0 0-11.6-2.9c-1.8.3-3.7.9-5.5 1.8-1.8-1-3.7-1.5-5.6-1.7a15.7 15.7 0 0 0-11.6 2.9 4 4 0 0 0-1.2 2.1 21 21 0 0 0 .9 9.7c.9 2.6 2 4.7 3.3 6.7l2 3.6a5 5 0 0 1-.3 3.8L10 77.2c-.8 1.4-.4 3.2.9 4.1a67 67 0 0 0 24.8 10.9l.4.1a68.4 68.4 0 0 0 23.7 0 60.3 60.3 0 0 0 25.3-11c1.3-.9 1.7-2.7.9-4.1zm-13 4.1A56.6 56.6 0 0 1 59.7 86l-2.1.4c-6.3 1.1-12.9 1-19.1 0l-2-.4c-4.7-1-9.2-2.5-13.4-4.6l-1.9-1c-1.4-.7-2.8-1.6-4-2.4l24-43.2a10.7 10.7 0 0 0 .6-9.4c-.6-1.4-1.4-2.8-2.3-4.3a17 17 0 0 1-3.4-11l2.1-.7a11 11 0 0 1 8.3 1.6c1 .6 2.3.6 3.3 0A11 11 0 0 1 58 9.3a7 7 0 0 1 2 .8c.3 4.6-1.5 7.7-3.3 10.9-1 1.5-1.7 2.9-2.3 4.3a10.7 10.7 0 0 0 .6 9.4l24 43.1-4 2.5"/></svg>