<svg xmlns="http://www.w3.org/2000/svg" viewBox="0 0 19 18"><g fill="none" fill-rule="evenodd" stroke="#E00000" stroke-linecap="round" stroke-linejoin="round" stroke-width="1.3"><path d="M11 1.3h.5c1.3 0 2.3 1 2.3 2V4h-.4C12 4 11 3.2 11 2v-.8zm6.8 1.1h-.6c-1.5 0-2.8 1-2.8 2v1h.6c1.5 0 2.8-1 2.8-2.1v-.9zm-.4 4.7h-.5c-1.3 0-2.3 1-2.2 2.3v.8h.5c1.3-.2 2.3-1 2.2-2.3v-.8zM12 11h3.7v2.7H12zm2-6.8v6.4m-11.4 6v-1.3m7.8 1.3v-1.3"/><path fill="#F7BABA" d="M11 11.4V6.2c0-.7-.5-1.3-1-1.3H3c-.5 0-1 .6-1 1.3v5.2m2-.7h5.7"/><path fill="#F7BABA" d="M11 8.8c-.8 0-1.4.6-1.4 1.4V13H3.4v-2.8c0-.6-.4-1.2-1-1.4-.7-.1-1.3.2-1.6.8-.3.6-.1 1.3.4 1.7v2.9c0 .6.5 1.1 1 1.1h8.5c.6 0 1-.5 1-1.1v-2.9c.6-.3.8-1 .6-1.5-.2-.6-.7-1-1.3-1h0z"/></g></svg>