<svg xmlns="http://www.w3.org/2000/svg" viewBox="0 0 16 16"><g fill="none" fill-rule="evenodd"><path fill="#FFF" d="M11.9 2.3h1.61c1 0 1.82.83 1.82 1.83v8.05c0 1-.8 1.82-1.82 1.82H2.5c-1 0-1.82-.82-1.82-1.82V4.13c0-1 .8-1.82 1.82-1.82l1.6.05V1.4L5.27.7h6.12l.52.42v1.23z"/><path fill="#F7BABA" d="M5.33 5.67l2 1.66h2l2-1.66-3-1.67z"/><path stroke="#E00000" stroke-linecap="round" stroke-linejoin="round" stroke-width="1.28" d="M6 6l1.38 1.33h1.95L10.67 6"/><path stroke="#E00000" stroke-linecap="round" stroke-linejoin="round" stroke-width="1.28" d="M12.58 2.13h.93c1 0 1.82.82 1.82 1.83v8.35c0 1.06-.8 1.87-1.82 1.87H2.5c-1 0-1.82-.8-1.82-1.82V3.96c0-1 .8-1.83 1.82-1.83h.93"/><path stroke="#E00000" stroke-linecap="round" stroke-linejoin="round" stroke-width="1.36" d="M12.2 8.67h.88"/><path fill="#F7BABA" stroke="#E00000" stroke-linecap="round" stroke-linejoin="round" stroke-width="1.28" d="M7.2 7.27l-.66 6.15c-.06.56.23 1.1.72 1.35l.95.5h.05l.97-.5c.5-.26.77-.8.7-1.36l-.7-6.14h0-2z"/><path fill="#F7BABA" stroke="#979797" stroke-width=".68" d="M11.27 1L8.51 4.34 4.82 1h6.45z"/><path stroke="#E00000" stroke-linecap="round" stroke-linejoin="round" stroke-width="1.28" d="M11.33.89L8.67 4.12l2.35 1.8a.6.6 0 0 0 .98-.48V1.88c0-.67-.54-1.2-1.21-1.2H5.22A1.2 1.2 0 0 0 4 1.88V5.5a.6.6 0 0 0 .93.52L8 4.12h0L4.67.9l6.66-.01z"/></g></svg>