<svg xmlns="http://www.w3.org/2000/svg" viewBox="0 0 96 96"><path fill="#f7baba" d="M83.2 30.8L80.6 22 75 14.4l-7.8-5-7.5-1.9L56 8.9s-3 8.7-2.7 9.1c.2.4-1.4 7.9-1.4 8.3s-1.2 6.2-1 6.7l.7 4.3H22.3L23 53s4.7 8 5.1 8.4c.4.2 19.9 4.2 19.9 4.2l20.8-.6 9.6-3.6 4.4-8.5 1.3-11-1-11.1z"/><path fill="#e00001" d="M88.7 34.8a32.1 32.1 0 0 0-32.1-32c-1.5 0-2.8 1-3.2 2.3l-7.8 28.3h-20C25.6 25.2 20 18 12 16.3l-.7-.2c-1-.2-1.7 0-2.5.5-.7.5-1.2 1.2-1.4 2.1-.2 1 0 1.7.5 2.5.5.7 1.2 1.2 2.1 1.4l.8.2c5.5 1 9 6.3 8.2 12-.8 5.5-.9 8.5-.5 14.3l.2 2.3c.6 8.6 7.3 15.6 15.6 17l-.9 2-1.7-.3a11.6 11.6 0 0 0 0 23.2c5.2 0 9.6-3.5 11-8.3h20A11.6 11.6 0 1 0 74 70l-1.7.3-.9-1.8a19 19 0 0 0 16-17L88.7 37v-2.2zm-46 43.6c-.5-2-1.7-4-3.3-5.4l2.1-4.3h22.6l2 4.3a11.4 11.4 0 0 0-3.3 5.4h-20zM48.2 40H64c1.8 0 3.3-1.5 3.3-3.3 0-1.8-1.5-3.3-3.3-3.3H52.4l6.7-24a25.4 25.4 0 0 1 23 24h-2.4a3.3 3.3 0 0 0-3.3 3.3c0 1.8 1.5 3.3 3.3 3.3h2.2l-1.2 10.8c-.5 6.4-6 11.4-12.4 11.4H37.5c-6.4 0-11.8-5-12.4-11.4l-.1-2.3c-.3-3.7-.3-5.2 0-8.6h23zM36.7 81.7c0 2.8-2.3 5-5 5s-5-2.3-5-5 2.3-5 5-5 5 2.3 5 5zm32.1 0c0-2.8 2.3-5 5-5s5 2.3 5 5-2.3 5-5 5-5-2.2-5-5z"/></svg>