<svg xmlns="http://www.w3.org/2000/svg" xmlns:xlink="http://www.w3.org/1999/xlink" id="Layer_1" x="0" y="0" version="1.1" viewBox="0 0 192 109" xml:space="preserve"><style>.st2{fill-rule:evenodd;clip-rule:evenodd;fill:#eef0f1}.st3{fill:#828282}</style><defs><path id="SVGID_1_" d="M0 0h192v109H0z"/></defs><clipPath id="SVGID_00000136408200944492991380000014219446617118913178_"><use overflow="visible" xlink:href="#SVGID_1_"/></clipPath><path fill="#fff" fill-rule="evenodd" d="M0 0h192v109H0z" clip-path="url(#SVGID_00000136408200944492991380000014219446617118913178_)" clip-rule="evenodd"/><g clip-path="url(#SVGID_00000136408200944492991380000014219446617118913178_)"><path d="M10.9 95.2c.1 7.6-6 13.8-13.6 13.8s-13.8-6-13.8-13.6c-.1-7.6 6-13.8 13.6-13.8h.1c7.6 0 13.7 6 13.7 13.7M-10.5 45C-3.3 39 7.9 27.8 7.9 19.3 8.2 12.3 5.7 5.6 1 .6c0 0 3 10-20.5 31.7C-39.7 50.9-36.8 68-36.8 69a37.2 37.2 0 0 0 12.5 27.5 29.8 29.8 0 0 1-5-16A44 44 0 0 1-10.4 45" class="st2"/><path d="M27.7 82.2c-.3-10.3-3.6-11-7.4-20.2-5.4-14.6 4-27.2-6.5-42.8-3 20-17.8 25.7-28.5 38.4a31.3 31.3 0 0 0-6.7 31.7 19.7 19.7 0 1 1 35 17.3A25 25 0 0 0 28 82.2" class="st2"/></g><g clip-path="url(#SVGID_00000136408200944492991380000014219446617118913178_)"><path d="M207.3 95.2c0 7.6-6 13.8-13.6 13.8s-13.8-6-13.8-13.6 6-13.8 13.6-13.8h.1c7.6 0 13.7 6 13.7 13.7M186 45c7.2-5.9 18.4-17.1 18.4-25.6A25 25 0 0 0 197.5.6s3 10-20.5 31.7c-20.2 18.6-17.3 35.6-17.3 36.7a37.2 37.2 0 0 0 12.5 27.5 29.8 29.8 0 0 1-4.9-16c0-14 7-27.4 18.7-35.6" class="st2"/><path d="M224.2 82.2c-.3-10.3-3.6-11-7.4-20.2-5.4-14.6 3.9-27.2-6.5-42.8-3 19.9-17.8 25.6-28.5 38.3a31.3 31.3 0 0 0-6.7 31.7 19.7 19.7 0 1 1 35 17.3 25 25 0 0 0 14.3-24.4" class="st2"/></g><path d="M91.8 80.8l1-6.8c.4-3.8.3-3.8 4.1-3.7 2 0 2 0 2.1 1.9l1.3 8.8c1-1 .8-2 1.2-3 1.8-4.4 3-9 4.3-13.5l.1-.8c.2-1.8.6-2.1 2.2-1.4 4 1.6 8.3 2.9 12.5 4.3 2 .7 4 1.5 5.6 2.8 1.4 1 2 2.7 2 4.4v8.5c-.2 2-.7 3.8-2.7 4.9-.8.5-1.7.6-2.6.6H69.4c-1.8 0-3.3-.4-4.4-1.7-1-1.1-1.3-2.7-1.3-4.2v-7c-.3-3.7 1.6-5.8 4.6-7.3 2.1-1 4.5-1.5 6.7-2.3l9-3c1-.6 1.7-.4 1.8.6.3 2.7 1.4 5.1 2.1 7.7.8 3.3 2.3 6.4 3.2 9.6.2.1.2.4.7.6z" class="st3"/><path fill="#b7b8ba" d="M77.4 40c.3-3.7 1.1-7.2 3.3-10.4 1.8-2.7 4.1-4.8 6.9-6.2 4.6-2.2 9.4-2.8 14.3-1 4 1.4 7.2 3.7 9.5 7.3 2.7 4.2 4 8.8 2.8 13.8-.2.8-.1 1.2.8 1.5 2 .6 3.7 1.6 5.6 2l3.6 1.3c1.2.4 2.2 1.2 2.9 2.4 1.4 2.8-.8 6.4-3.7 6.3-2.2 0-3.6-1.2-5.2-2l-6.5-3.7c-.4-.2-.7-.2-1 .2a18 18 0 0 1-19.5 6.4 18 18 0 0 1-12.7-12.2 18 18 0 0 1-1-5.7zM96 54.5c7.4.6 14.6-6.7 14.7-14.2A15 15 0 0 0 98 25.5a14.8 14.8 0 0 0-16.7 13c-.8 8.7 6.3 16.5 14.6 16z"/><path d="M96 63.6h2c2 0 2.6 1.5 2 3.2-.7 2.1-2 2.4-3.8 2.1H96c-3.1 0-3.1 0-4.3-2.8-.4-1 .6-2.5 1.7-2.6h2.6z" class="st3"/></svg>