<svg xmlns="http://www.w3.org/2000/svg" viewBox="0 0 16 16"><g fill="none" fill-rule="evenodd"><path fill="#FFF" d="M3.2 1.6l-.7 5L.9 8v2.4l.8 1V13l.8 1.1h1.6l.5-.7v-2h6.6V13l.5 1.3 1.8-.2.4-.5v-2l1-.6V8.8l-1.6-2.3-1-4.5-1.1-.7h-6z"/><path fill="#F7BABA" stroke="#E00000" stroke-linecap="round" stroke-linejoin="round" stroke-width="1.4" d="M13.5 6.7l-.8-3.4c0-.9-.7-1.5-1.3-1.5h-7c-.7 0-1.3.5-1.4 1.5l-.7 3.4"/><path fill="#FBD9D9" stroke="#E00000" stroke-linecap="round" stroke-linejoin="round" stroke-width="1.4" d="M4.7 11.6v1c0 .9-.7 1.5-1.4 1.5h0c-.9 0-1.5-.6-1.5-1.4v-1h0m12 0v1c0 .8-.5 1.4-1.2 1.4h-.1c-.8 0-1.4-.6-1.4-1.4v-1h0"/><path stroke="#E00000" stroke-linecap="round" stroke-linejoin="round" stroke-width="1.4" d="M12.8 11.6H3a2 2 0 0 1-2-2v-.8h0c0-.4 0-.8.3-1l1-1h11.2l1 1c.2.2.4.6.4 1v.8c0 1-1 2-2 2z"/><path fill="#E00000" fill-rule="nonzero" d="M2 9.3a1 1 0 1 1 2 0 1 1 0 0 1-2 0zm9.9 0a1 1 0 1 1 2 0 1 1 0 0 1-2 0z"/><path stroke="#E00000" stroke-linecap="round" stroke-linejoin="round" d="M11 6.6c0-.7-.5-1.3-1.1-1.3-.7 0-1.3.6-1.3 1.3"/><path stroke="#E00000" stroke-linecap="round" stroke-width="1.4" d="M6 9.3h4"/></g></svg>